<?xml version="1.0" encoding="utf-8"?>
<!-- Generator: Adobe Illustrator 27.5.0, SVG Export Plug-In . SVG Version: 6.00 Build 0)  -->
<svg version="1.1" id="Layer_2_00000052101728189058321970000009377305130490329489_"
	 xmlns="http://www.w3.org/2000/svg" xmlns:xlink="http://www.w3.org/1999/xlink" x="0px" y="0px" viewBox="0 0 48.5 48.4"
	 style="enable-background:new 0 0 48.5 48.4;" xml:space="preserve">
<style type="text/css">
	.st0{fill:none;stroke:#FFFFFF;stroke-width:2.9;stroke-miterlimit:10;}
	.st1{fill:none;stroke:#FFFFFF;stroke-width:4;stroke-miterlimit:10;}
</style>
<path class="st0" d="M47,23.4c0,12.8-10.4,23.2-23.2,23.2c-9.6,0-17.4-7.8-17.4-17.4c0-7.2,5.8-13,13-13c5.4,0,9.8,4.4,9.8,9.8
	c0,4.1-3.3,7.3-7.3,7.3c-3,0-5.5-2.5-5.5-5.5c0-2.3,1.9-4.1,4.1-4.1c1.7,0,3.1,1.4,3.1,3.1c0,1.3-1,2.3-2.3,2.3
	c-1,0-1.7-0.8-1.7-1.7"/>
<circle class="st1" cx="24.3" cy="24.2" r="22.3"/>
</svg>
