<?xml version="1.0" encoding="utf-8"?>
<!-- Generator: Adobe Illustrator 27.5.0, SVG Export Plug-In . SVG Version: 6.00 Build 0)  -->
<svg version="1.1" id="Layer_2_00000160894728791643763610000000057580722246078364_"
	 xmlns="http://www.w3.org/2000/svg" xmlns:xlink="http://www.w3.org/1999/xlink" x="0px" y="0px" viewBox="0 0 414.7 59.9"
	 style="enable-background:new 0 0 414.7 59.9;" xml:space="preserve">
<style type="text/css">
	.st0{fill:#FFFFFF;}
	.st1{font-family:'Dune_Rise';}
	.st2{font-size:60px;}
	.st3{letter-spacing:12;}
	.st4{fill:none;stroke:#FFFFFF;stroke-width:3;stroke-miterlimit:10;}
</style>
<text transform="matrix(1 0 0 1 0 54.56)" class="st0 st1 st2 st3">I</text>
<text transform="matrix(1 0 0 1 23.16 54.49)" class="st0 st1 st2 st3">G</text>
<text transform="matrix(1 0 0 1 89.77 54.91)" class="st0 st1 st2 st3">N</text>
<text transform="matrix(1 0 0 1 207.48 55.33)" class="st0 st1 st2 st3">T</text>
<g>
	<path class="st4" d="M206.1,30c0,12.8-10.4,23.2-23.2,23.2c-9.6,0-17.4-7.8-17.4-17.4c0-7.2,5.8-13,13-13c5.4,0,9.8,4.4,9.8,9.8
		c0,4.1-3.3,7.3-7.3,7.3c-3,0-5.5-2.5-5.5-5.5c0-2.3,1.9-4.1,4.1-4.1c1.7,0,3.1,1.4,3.1,3.1c0,1.3-1,2.3-2.3,2.3
		c-1,0-1.7-0.8-1.7-1.7"/>
	<circle class="st4" cx="183.3" cy="30.8" r="22.3"/>
</g>
<text transform="matrix(1 0 0 1 268.35 55.43)" class="st0 st1 st2 st3">U</text>
<text transform="matrix(1 0 0 1 334.03 55.79)" class="st0 st1 st2 st3">M</text>
</svg>
