<?xml version="1.0" encoding="utf-8"?>
<!-- Generator: Adobe Illustrator 27.5.0, SVG Export Plug-In . SVG Version: 6.00 Build 0)  -->
<svg version="1.1" id="Layer_1" xmlns="http://www.w3.org/2000/svg" xmlns:xlink="http://www.w3.org/1999/xlink" x="0px" y="0px"
	 viewBox="0 0 1000 1000" style="enable-background:new 0 0 1000 1000;" xml:space="preserve">
<style type="text/css">
	.st0{display:none;stroke:#000000;stroke-miterlimit:10;}
	.st1{font-family:'Dune_Rise';}
	.st2{font-size:60px;}
	.st3{letter-spacing:16;}
	.st4{fill:none;stroke:#000000;stroke-width:3;stroke-miterlimit:10;}
	.st5{fill:none;stroke:#000000;stroke-width:4;stroke-miterlimit:10;}
</style>
<g>
	<text transform="matrix(1 0 0 1 273.4705 524.9602)" class="st0 st1 st2 st3"> </text>
	<g>
		<path class="st4" d="M497.5,414.12c0,13.23-10.72,23.95-23.95,23.95c-9.92,0-17.96-8.04-17.96-17.96
			c0-7.44,6.03-13.47,13.47-13.47c5.58,0,10.1,4.52,10.1,10.1c0,4.19-3.39,7.58-7.58,7.58c-3.14,0-5.68-2.54-5.68-5.68
			c0-2.35,1.91-4.26,4.26-4.26c1.77,0,3.2,1.43,3.2,3.2c0,1.32-1.07,2.4-2.4,2.4c-0.99,0-1.8-0.81-1.8-1.8"/>
		<circle class="st5" cx="474" cy="415" r="23"/>
	</g>
</g>
</svg>
